<svg width="12" height="12" viewBox="0 0 12 12" fill="none" xmlns="http://www.w3.org/2000/svg">
<path fill-rule="evenodd" clip-rule="evenodd" d="M9.55763 1.02817C9.97175 0.614049 10.624 0.594922 11.0146 0.985446C11.4051 1.37597 11.386 2.02826 10.9718 2.44238L7.41417 6.00005L10.8992 9.48503C11.3099 9.89575 11.3263 10.5453 10.9357 10.9358C10.5452 11.3263 9.89566 11.31 9.48494 10.8992L5.99996 7.41426L2.48843 10.9258C2.07431 11.3399 1.42202 11.359 1.0315 10.9685C0.640973 10.578 0.6601 9.9257 1.07422 9.51158L4.58575 6.00005L1.07111 2.48541C0.660389 2.07469 0.644014 1.42515 1.03454 1.03463C1.42506 0.644104 2.0746 0.660478 2.48533 1.0712L5.99996 4.58584L9.55763 1.02817Z" fill="#828282"/>
</svg>
