<svg width="16" height="16" viewBox="0 0 16 16" fill="none" xmlns="http://www.w3.org/2000/svg">
<path d="M15.829 6.76501C16.159 6.45101 15.988 5.87701 15.547 5.81501L10.649 5.11901L8.465 0.792012M15.829 6.76501L3.696 10.121L0.172996 6.76501C-0.156004 6.45101 0.0149962 5.87701 0.455996 5.81501L5.354 5.11901L7.538 0.792012M15.829 6.76501L12.307 10.121L15.829 6.76501ZM8.465 0.792012C8.268 0.402012 7.735 0.402012 7.538 0.792012M8.465 0.792012L8.24181 0.90466C8.13725 0.697773 7.86567 0.697795 7.76114 0.90473M8.465 0.792012L8.24185 0.904729L10.4258 5.23166L10.4846 5.34817L10.6138 5.36653L15.5118 6.06253L15.5122 6.06258C15.7298 6.09318 15.8472 6.40264 15.6567 6.5839L15.6565 6.58402L12.1345 9.94002L12.0376 10.0324L12.0608 10.1642L12.8908 14.8942L12.8908 14.8944C12.9375 15.1599 12.6843 15.3124 12.5052 15.2206L12.5052 15.2206L12.391 15.443M7.538 0.792012L7.76118 0.90466L7.76114 0.90473M7.538 0.792012L7.76114 0.90473M7.76114 0.90473L5.57718 5.23166L5.51837 5.34817L5.38917 5.36653L0.491168 6.06253L0.490801 6.06258C0.273082 6.09319 0.155738 6.40287 0.345545 6.58411L0.345431 6.584L0.172999 6.76501L0.345602 6.58416L3.86843 9.94L3.96537 10.0323L3.94223 10.1642L3.11223 14.8942L3.11221 14.8944C3.06554 15.1594 3.31775 15.3118 3.49682 15.2211M12.391 15.443L12.5051 15.2206L8.11424 12.9646L7.99997 12.9059L7.88571 12.9647L3.49671 15.2207L3.49682 15.2211M12.391 15.443C12.777 15.641 13.215 15.294 13.137 14.851L8 13.187L12.391 15.443ZM3.49682 15.2211C3.49685 15.2211 3.49688 15.2211 3.49691 15.2211C3.49724 15.2209 3.49757 15.2207 3.49789 15.2206L3.611 15.4411L2.866 14.851C2.79172 15.2729 3.18539 15.6077 3.55647 15.4677L3.49682 15.2211Z" stroke="#FFC90A" stroke-width="0.5"/>
</svg>
