<svg width="16" height="16" viewBox="0 0 16 16" fill="none" xmlns="http://www.w3.org/2000/svg">
<mask id="path-1-inside-1_1_23" fill="white">
<path d="M2.866 14.851C2.788 15.294 3.226 15.641 3.612 15.443L8 13.187V0.499514C7.818 0.500047 7.63623 0.597546 7.538 0.792012L5.354 5.11901L0.455996 5.81501C0.0149962 5.87701 -0.156004 6.45101 0.172996 6.76501L3.696 10.121L2.866 14.851Z"/>
<path d="M10.649 5.11901L8.465 0.792012C8.36623 0.596477 8.183 0.498978 8 0.499514V13.187L12.391 15.443C12.777 15.641 13.215 15.294 13.137 14.851L12.307 10.121L15.829 6.76501C16.159 6.45101 15.988 5.87701 15.547 5.81501L10.649 5.11901Z"/>
</mask>
<path d="M8.25 13.187V0.499514H7.75V13.187H8.25ZM3.612 15.443L3.8402 15.8879L3.84062 15.8877L3.612 15.443ZM2.866 14.851L3.35842 14.9377L3.35847 14.9374L2.866 14.851ZM3.696 10.121L4.18847 10.2074L4.23475 9.94368L4.04086 9.75898L3.696 10.121ZM0.172996 6.76501L-0.172216 7.12671L-0.171872 7.12704L0.172996 6.76501ZM0.455996 5.81501L0.525607 6.31014L0.526339 6.31004L0.455996 5.81501ZM5.354 5.11901L5.42434 5.61404L5.68275 5.57732L5.80036 5.34431L5.354 5.11901ZM7.538 0.792012L7.0917 0.566576L7.09163 0.566715L7.538 0.792012ZM8.465 0.792012L8.91136 0.566715L8.91129 0.566576L8.465 0.792012ZM10.649 5.11901L10.2026 5.34431L10.3202 5.57732L10.5787 5.61404L10.649 5.11901ZM15.547 5.81501L15.4767 6.31004L15.4774 6.31014L15.547 5.81501ZM15.829 6.76501L15.4843 6.40279L15.4841 6.40303L15.829 6.76501ZM12.307 10.121L11.9621 9.75903L11.7682 9.94372L11.8145 10.2074L12.307 10.121ZM13.137 14.851L12.6445 14.9374L12.6446 14.9377L13.137 14.851ZM12.391 15.443L12.1625 15.8877L12.1628 15.8879L12.391 15.443ZM8 13.187L8.22849 12.7423L7.99992 12.6248L7.77138 12.7423L8 13.187ZM8 0.499514L7.99853 -0.00048393L8 0.499514ZM3.38379 14.9981C3.37939 15.0004 3.37793 15.0004 3.37912 15.0002C3.3802 15 3.38163 15 3.38283 15.0001C3.385 15.0004 3.38185 15.0005 3.37569 14.9956C3.36952 14.9907 3.36394 14.9835 3.3606 14.975C3.35787 14.9681 3.35508 14.9567 3.35842 14.9377L2.37357 14.7643C2.23309 15.5622 3.04047 16.2981 3.8402 15.8879L3.38379 14.9981ZM3.35847 14.9374L4.18847 10.2074L3.20352 10.0346L2.37352 14.7646L3.35847 14.9374ZM4.04086 9.75898L0.517865 6.40298L-0.171872 7.12704L3.35113 10.483L4.04086 9.75898ZM0.518208 6.40331C0.508687 6.39422 0.505009 6.38635 0.50304 6.37801C0.500572 6.36754 0.500474 6.35324 0.504935 6.33826C0.509414 6.32323 0.516155 6.31512 0.518984 6.3125C0.519815 6.31173 0.51991 6.31094 0.525606 6.31014L0.386386 5.31988C-0.501131 5.44466 -0.77944 6.54717 -0.172216 7.12671L0.518208 6.40331ZM0.526339 6.31004L5.42434 5.61404L5.28365 4.62398L0.385653 5.31998L0.526339 6.31004ZM5.80036 5.34431L7.98436 1.01731L7.09163 0.566715L4.90763 4.89371L5.80036 5.34431ZM8.01863 1.01731L10.2026 5.34431L11.0954 4.89371L8.91136 0.566715L8.01863 1.01731ZM10.5787 5.61404L15.4767 6.31004L15.6173 5.31998L10.7193 4.62398L10.5787 5.61404ZM15.4774 6.31014C15.4831 6.31094 15.4832 6.31173 15.484 6.31247C15.4867 6.31504 15.4934 6.32307 15.4978 6.33797C15.5023 6.35282 15.5021 6.36698 15.4997 6.37735C15.4977 6.38559 15.4941 6.39354 15.4843 6.40279L16.1737 7.12724C16.7827 6.54775 16.5043 5.44468 15.6166 5.31988L15.4774 6.31014ZM15.4841 6.40303L11.9621 9.75903L12.6519 10.483L16.1739 7.12699L15.4841 6.40303ZM11.8145 10.2074L12.6445 14.9374L13.6295 14.7646L12.7995 10.0346L11.8145 10.2074ZM12.6446 14.9377C12.6479 14.9567 12.6451 14.9681 12.6424 14.975C12.6391 14.9835 12.6335 14.9907 12.6273 14.9956C12.6211 15.0005 12.618 15.0004 12.6202 15.0001C12.6214 15 12.6228 15 12.6239 15.0002C12.6251 15.0004 12.6236 15.0004 12.6192 14.9981L12.1628 15.8879C12.9625 16.2981 13.7699 15.5622 13.6294 14.7643L12.6446 14.9377ZM12.6195 14.9983L8.22849 12.7423L7.7715 13.6317L12.1625 15.8877L12.6195 14.9983ZM7.77138 12.7423L3.38338 14.9983L3.84062 15.8877L8.22861 13.6317L7.77138 12.7423ZM7.98429 1.01745C7.98832 1.00948 7.99171 1.00535 7.99338 1.00354C7.9951 1.00168 7.99621 1.00095 7.99665 1.00069C7.99755 1.00014 7.9991 0.999519 8.00146 0.999512L7.99853 -0.00048393C7.63496 0.00058046 7.27766 0.198429 7.0917 0.566576L7.98429 1.01745ZM8.00146 0.999512C8.00385 0.999505 8.00541 1.00013 8.00632 1.00067C8.00676 1.00094 8.00787 1.00165 8.00958 1.00351C8.01124 1.0053 8.01466 1.00944 8.0187 1.01745L8.91129 0.566576C8.72426 0.196321 8.36405 -0.00155401 7.99853 -0.00048393L8.00146 0.999512Z" fill="#FFC90A" mask="url(#path-1-inside-1_1_23)"/>
</svg>
